#!OML:ASF F:\VICON\USERDATA\INSTALL\rory3\rory3.ASF
:FULLY-SPECIFIED
:DEGREES
153
root -0.04992718839270294 17.881696068806573 31.468738463323923 3.368418566897115 -2.22318560963531 -2.9418196685977986
lfemur -14.368940879725036 1.4556519730674835 -20.095360942694768
ltibia 70.46456061870464
lfoot 4.624645020662616 -8.420422898125585
ltoes -26.733426289835382
rfemur -14.163550368071354 3.8384391642659565 30.539987638272347
rtibia 89.74890380028563
rfoot 2.316377714353464 -7.846466608607502
rtoes -10.917633786884512
lowerback 14.374697130472025 1.921502547191341 1.80351851420308
upperback -1.7135466644741983 3.110017435431196 1.3285093406460666
thorax -9.010343389416773 1.4918476858148026 -1.2337910428293022
lowerneck -19.81427026950744 -4.552239122519115 -1.8091369073317394
upperneck 14.39360613554305 -6.416137772432328 2.9907106736792906
head 8.28557626032943 -2.7709385684614456 0.5526032597384842
lclavicle 7.933867047987245e-17 -3.5106937239321093e-16
lhumerus -48.56207714262982 -18.14224861697264 98.26533280065819
lradius 101.89079995674255
lwrist 32.86832113874368
lhand -23.798892581347662 2.0254874009989017
lfingers 7.12502
lthumb 2.8704386465701615 31.406001395734098
rclavicle 7.93386706374746e-17 -3.5106937227630253e-16
rhumerus -55.89777117458662 6.413764932010432 -94.21431963375376
rradius 109.84798293492754
rwrist -10.453737151163043
rhand -17.936764020533538 41.84892860642205
rfingers 7.12502
rthumb 8.584040459010195 11.760221309553508
154
root -0.012356370007797934 17.865521418680686 31.63793718829784 3.226702599849111 -2.0926673877429156 -2.7912454097433184
lfemur -14.290718059186535 1.3577626764857798 -20.32967301825801
ltibia 70.50777481679698
lfoot 4.141079567963402 -8.278257754220764
ltoes -25.75107711848846
rfemur -13.68878548240471 3.659056609032276 30.429047641145406
rtibia 90.22984552442814
rfoot 2.262065445110868 -7.622011319957911
rtoes -11.198798620189159
lowerback 14.311389314972484 1.89590622545226 1.7890553929628568
upperback -1.6980545363754422 3.0341722558180493 1.184573889886499
thorax -8.91171724747183 1.4566628125164527 -1.353796947348367
lowerneck -19.862705258360883 -4.5816852236908385 -1.8144826467190378
upperneck 14.224789155105665 -6.4507245642074285 3.0200656989513637
head 8.21823139147213 -2.786644871131733 0.5684343727518982
lclavicle 7.933867048180796e-17 -3.510693723918582e-16
lhumerus -48.235674982305234 -18.346082194728314 98.24244456347378
lradius 101.38621694115866
lwrist 32.76787266407476
lhand -24.07313702359887 1.6407249073851569
lfingers 7.12502
lthumb 2.776336463660951 31.34175148147582
rclavicle 7.933867063543295e-17 -3.5106937227802407e-16
rhumerus -55.96925568802682 6.155849348118361 -94.13375252780244
rradius 109.84600888065097
rwrist -10.154454710742884
rhand -17.932630191343982 41.716302936492895
rfingers 7.12502
rthumb 8.582743192432064 11.50054684357024
155
root -0.017789941417320265 17.84589261922892 31.900411918788215 3.1114334000987727 -2.014757300491844 -2.7211993644801233
lfemur -14.357686923729936 1.2912581821232172 -20.444537217836665
ltibia 70.55978899315075
lfoot 4.550409658654815 -7.541482337180618
ltoes -23.176140072309977
rfemur -13.343340353006138 3.6772469523129265 30.3868665079336
rtibia 90.76331582583445
rfoot 2.5768593891889187 -7.735654217853036
rtoes -10.795670456488367
lowerback 14.356511154079115 1.891852708135199 1.6789638516812868
upperback -1.6443455886482832 3.0219228433765384 1.1078142177686852
thorax -8.87508668869145 1.4484856489780653 -1.2512422160450531
lowerneck -19.959672647781623 -4.593033093140254 -1.7946866304355003
upperneck 14.052455727613511 -6.470703269116108 3.0466329349695345
head 8.148685658263915 -2.7971910437195566 0.5856125183753966
lclavicle 7.933867048397042e-17 -3.510693723901237e-16
lhumerus -47.75327253233681 -18.476247104155178 98.20962102269614
lradius 100.90233093516898
lwrist 32.80574015650183
lhand -24.01874371104874 1.8171544179025063
lfingers 7.12502
lthumb 2.669316494226696 31.307450253648813
rclavicle 7.933867064134465e-17 -3.5106937227339997e-16
rhumerus -55.90965687553299 5.976116108272786 -94.06366235281826
rradius 109.80802210423496
rwrist -9.909889318300907
rhand -17.94692279483219 41.48983652998618
rfingers 7.12502
rthumb 8.638347407074495 11.270473964488827
156
root -0.014314718199407384 17.809210576515053 32.08486253608741 2.961281604172324 -1.9731562391610964 -2.6239097808228546
lfemur -14.33473829676451 1.2985251583533617 -20.59116901825268
ltibia 70.57250678338009
lfoot 5.138503431251249 -6.8796560177549635
ltoes -21.282782473244232
rfemur -13.05562844660405 3.6651679465612705 30.284793378279307
rtibia 91.3526025981312
rfoot 2.63344645765422 -7.897943874693688
rtoes -9.876175515279908
lowerback 14.404730473930073 1.8983306116761858 1.5874154794861897
upperback -1.5670912210540127 2.998810542163474 1.0200325347154517
thorax -8.81905481081498 1.4372327345788714 -1.2049224681088353
lowerneck -20.069059806093655 -4.606643290929332 -1.7642550009015814
upperneck 13.867333501197832 -6.492497478330662 3.073616093146233
head 8.065041850457996 -2.8116581739731537 0.6022579279060042
lclavicle 7.933867048404826e-17 -3.510693723900133e-16
lhumerus -47.37628074265495 -18.515878081005628 98.14196846622751
lradius 100.49708498460099
lwrist 32.65029025485683
lhand -24.086235019277996 1.8500626619671752
lfingers 7.12502
lthumb 2.645314579073589 31.40681074933193
rclavicle 7.933867063707068e-17 -3.510693722766403e-16
rhumerus -55.83141351846141 5.822960815518902 -94.04528014231947
rradius 109.78302276829176
rwrist -9.701507745333014
rhand -17.840804835749122 41.35171345768421
rfingers 7.12502
rthumb 8.682585210164861 11.047489165167725
